<svg height="512pt" viewBox="0 -133 512 512" width="512pt" xmlns="http://www.w3.org/2000/svg"><path d="m161.074219 145.507812c0-6.777343-5.433594-12.316406-12.183594-12.507812-.285156.007812-.570313.011719-.855469.011719l-22.625-.09375v25.101562h23.117188c6.917968 0 12.546875-5.613281 12.546875-12.511719zm0 0"/><path d="m148.386719 102.996094c2.484375-.265625 5.582031-3.902344 5.582031-7.753906 0-3.644532-2.992188-7.355469-5.929688-7.355469h-22.625v15.03125l22.433594.09375c.179688-.007813.359375-.015625.539063-.015625zm0 0"/><path d="m397 0h-282c-63.410156 0-115 51.589844-115 115v15.90625c0 63.410156 51.589844 115 115 115h282c63.410156 0 115-51.589844 115-115v-15.90625c0-63.410156-51.589844-115-115-115zm17.265625 80.039062-28.34375 44.820313v49.023437c0 8.285157-6.714844 15-15 15s-15-6.714843-15-15v-49.578124l-27.988281-44.265626c-4.429688-7-2.34375-16.265624 4.660156-20.695312 7.003906-4.425781 16.265625-2.339844 20.695312 4.664062l17.808594 28.164063 17.8125-28.164063c4.429688-7.003906 13.695313-9.089843 20.695313-4.664062 7 4.429688 9.085937 13.695312 4.660156 20.695312zm-153.585937 78.414063c8.382812 0 15.46875-9.117187 15.46875-19.910156v-66.089844c0-8.285156 6.714843-15 15-15 8.28125 0 15 6.714844 15 15v66.085937c0 27.523438-20.398438 49.914063-45.46875 49.914063-25.070313 0-45.464844-22.390625-45.464844-49.914063v-66.085937c0-8.285156 6.714844-15 15-15 8.28125 0 15 6.714844 15 15v66.085937c0 10.796876 7.082031 19.914063 15.464844 19.914063zm-165.265626-40.566406c0-.019531 0-.039063 0-.0625v-44.9375c0-8.285157 6.714844-15 15-15h37.625c19.476563 0 35.929688 17.105469 35.929688 37.355469 0 7.269531-2.074219 14.136718-5.621094 19.972656 7.851563 7.714844 12.726563 18.445312 12.726563 30.292968 0 23.441407-19.085938 42.511719-42.546875 42.511719h-38.113282c-8.285156 0-15-6.714843-15-15zm0 0"/></svg>